<?xml version="1.0" encoding="utf-8" standalone="no"?>
<!DOCTYPE svg PUBLIC "-//W3C//DTD SVG 1.1//EN"
  "http://www.w3.org/Graphics/SVG/1.1/DTD/svg11.dtd">
<!-- Created with matplotlib (http://matplotlib.org/) -->
<svg height="699pt" version="1.1" viewBox="0 0 1187 699" width="1187pt" xmlns="http://www.w3.org/2000/svg" xmlns:xlink="http://www.w3.org/1999/xlink">
 <defs>
  <style type="text/css">
*{stroke-linecap:butt;stroke-linejoin:round;}
  </style>
 </defs>
 <g id="figure_1">
  <g id="patch_1">
   <path d="
M-1.42109e-14 699.825
L1187.92 699.825
L1187.92 0
L-1.42109e-14 0
z
" style="fill:#ffffff;"/>
  </g>
  <g id="axes_1">
   <g id="patch_2">
    <path d="
M64.7156 583.2
L1180.72 583.2
L1180.72 7.2
L64.7156 7.2
z
" style="fill:#ffffff;"/>
   </g>
   <g id="patch_3">
    <path clip-path="url(#pdc92de2c1f)" d="
M17.5956 583.2
L110.596 583.2
L110.596 578.304
L17.5956 578.304
z
" style="fill:#008000;"/>
   </g>
   <g id="patch_4">
    <path clip-path="url(#pdc92de2c1f)" d="
M141.596 583.2
L234.596 583.2
L234.596 580.445
L141.596 580.445
z
" style="fill:#008000;"/>
   </g>
   <g id="patch_5">
    <path clip-path="url(#pdc92de2c1f)" d="
M265.596 583.2
L358.596 583.2
L358.596 576.245
L265.596 576.245
z
" style="fill:#008000;"/>
   </g>
   <g id="patch_6">
    <path clip-path="url(#pdc92de2c1f)" d="
M389.596 583.2
L482.596 583.2
L482.596 578.706
L389.596 578.706
z
" style="fill:#008000;"/>
   </g>
   <g id="patch_7">
    <path clip-path="url(#pdc92de2c1f)" d="
M513.596 583.2
L606.596 583.2
L606.596 400.373
L513.596 400.373
z
" style="fill:#008000;"/>
   </g>
   <g id="patch_8">
    <path clip-path="url(#pdc92de2c1f)" d="
M637.596 583.2
L730.596 583.2
L730.596 570.175
L637.596 570.175
z
" style="fill:#008000;"/>
   </g>
   <g id="patch_9">
    <path clip-path="url(#pdc92de2c1f)" d="
M761.596 583.2
L854.596 583.2
L854.596 573.409
L761.596 573.409
z
" style="fill:#008000;"/>
   </g>
   <g id="patch_10">
    <path clip-path="url(#pdc92de2c1f)" d="
M885.596 583.2
L978.596 583.2
L978.596 533.112
L885.596 533.112
z
" style="fill:#008000;"/>
   </g>
   <g id="patch_11">
    <path clip-path="url(#pdc92de2c1f)" d="
M1009.6 583.2
L1102.6 583.2
L1102.6 580.22
L1009.6 580.22
z
" style="fill:#008000;"/>
   </g>
   <g id="patch_12">
    <path clip-path="url(#pdc92de2c1f)" d="
M17.5956 578.304
L110.596 578.304
L110.596 572.823
L17.5956 572.823
z
" style="fill:#0000ff;"/>
   </g>
   <g id="patch_13">
    <path clip-path="url(#pdc92de2c1f)" d="
M141.596 580.445
L234.596 580.445
L234.596 576.79
L141.596 576.79
z
" style="fill:#0000ff;"/>
   </g>
   <g id="patch_14">
    <path clip-path="url(#pdc92de2c1f)" d="
M265.596 576.245
L358.596 576.245
L358.596 568.936
L265.596 568.936
z
" style="fill:#0000ff;"/>
   </g>
   <g id="patch_15">
    <path clip-path="url(#pdc92de2c1f)" d="
M389.596 578.706
L482.596 578.706
L482.596 574.138
L389.596 574.138
z
" style="fill:#0000ff;"/>
   </g>
   <g id="patch_16">
    <path clip-path="url(#pdc92de2c1f)" d="
M513.596 400.373
L606.596 400.373
L606.596 220.394
L513.596 220.394
z
" style="fill:#0000ff;"/>
   </g>
   <g id="patch_17">
    <path clip-path="url(#pdc92de2c1f)" d="
M637.596 570.175
L730.596 570.175
L730.596 557.384
L637.596 557.384
z
" style="fill:#0000ff;"/>
   </g>
   <g id="patch_18">
    <path clip-path="url(#pdc92de2c1f)" d="
M761.596 573.409
L854.596 573.409
L854.596 562.445
L761.596 562.445
z
" style="fill:#0000ff;"/>
   </g>
   <g id="patch_19">
    <path clip-path="url(#pdc92de2c1f)" d="
M885.596 533.112
L978.596 533.112
L978.596 483.778
L885.596 483.778
z
" style="fill:#0000ff;"/>
   </g>
   <g id="patch_20">
    <path clip-path="url(#pdc92de2c1f)" d="
M1009.6 580.22
L1102.6 580.22
L1102.6 575.652
L1009.6 575.652
z
" style="fill:#0000ff;"/>
   </g>
   <g id="patch_21">
    <path clip-path="url(#pdc92de2c1f)" d="
M17.5956 572.823
L110.596 572.823
L110.596 568.4
L17.5956 568.4
z
" style="fill:#ff0000;"/>
   </g>
   <g id="patch_22">
    <path clip-path="url(#pdc92de2c1f)" d="
M141.596 576.79
L234.596 576.79
L234.596 574.579
L141.596 574.579
z
" style="fill:#ff0000;"/>
   </g>
   <g id="patch_23">
    <path clip-path="url(#pdc92de2c1f)" d="
M265.596 568.936
L358.596 568.936
L358.596 562.301
L265.596 562.301
z
" style="fill:#ff0000;"/>
   </g>
   <g id="patch_24">
    <path clip-path="url(#pdc92de2c1f)" d="
M389.596 574.138
L482.596 574.138
L482.596 569.715
L389.596 569.715
z
" style="fill:#ff0000;"/>
   </g>
   <g id="patch_25">
    <path clip-path="url(#pdc92de2c1f)" d="
M513.596 220.394
L606.596 220.394
L606.596 34.6286
L513.596 34.6286
z
" style="fill:#ff0000;"/>
   </g>
   <g id="patch_26">
    <path clip-path="url(#pdc92de2c1f)" d="
M637.596 557.384
L730.596 557.384
L730.596 544.115
L637.596 544.115
z
" style="fill:#ff0000;"/>
   </g>
   <g id="patch_27">
    <path clip-path="url(#pdc92de2c1f)" d="
M761.596 562.445
L854.596 562.445
L854.596 553.599
L761.596 553.599
z
" style="fill:#ff0000;"/>
   </g>
   <g id="patch_28">
    <path clip-path="url(#pdc92de2c1f)" d="
M885.596 483.778
L978.596 483.778
L978.596 432.913
L885.596 432.913
z
" style="fill:#ff0000;"/>
   </g>
   <g id="patch_29">
    <path clip-path="url(#pdc92de2c1f)" d="
M1009.6 575.652
L1102.6 575.652
L1102.6 573.44
L1009.6 573.44
z
" style="fill:#ff0000;"/>
   </g>
   <g id="line2d_1">
    <path clip-path="url(#pdc92de2c1f)" d="
M64.7156 578.304
L188.716 580.445
L312.716 576.245
L436.716 578.706
L560.716 400.373
L684.716 570.175
L808.716 573.409
L932.716 533.112
L1056.72 580.22" style="fill:none;stroke:#008000;stroke-dasharray:6.000000,6.000000;stroke-dashoffset:0.0;"/>
    <defs>
     <path d="
M-4.996e-16 10.6066
L6.36396 0
L3.88578e-16 -10.6066
L-6.36396 -1.77636e-15
z
" id="m4d553fd0d3" style="stroke:#000000;stroke-linejoin:miter;stroke-width:0.5;"/>
    </defs>
    <g clip-path="url(#pdc92de2c1f)">
     <use style="fill:#008000;stroke:#000000;stroke-linejoin:miter;stroke-width:0.5;" x="64.715625" xlink:href="#m4d553fd0d3" y="578.304277581"/>
     <use style="fill:#008000;stroke:#000000;stroke-linejoin:miter;stroke-width:0.5;" x="188.715625" xlink:href="#m4d553fd0d3" y="580.444517177"/>
     <use style="fill:#008000;stroke:#000000;stroke-linejoin:miter;stroke-width:0.5;" x="312.715625" xlink:href="#m4d553fd0d3" y="576.244662683"/>
     <use style="fill:#008000;stroke:#000000;stroke-linejoin:miter;stroke-width:0.5;" x="436.715625" xlink:href="#m4d553fd0d3" y="578.705674178"/>
     <use style="fill:#008000;stroke:#000000;stroke-linejoin:miter;stroke-width:0.5;" x="560.715625" xlink:href="#m4d553fd0d3" y="400.373369673"/>
     <use style="fill:#008000;stroke:#000000;stroke-linejoin:miter;stroke-width:0.5;" x="684.715625" xlink:href="#m4d553fd0d3" y="570.174708443"/>
     <use style="fill:#008000;stroke:#000000;stroke-linejoin:miter;stroke-width:0.5;" x="808.715625" xlink:href="#m4d553fd0d3" y="573.408555147"/>
     <use style="fill:#008000;stroke:#000000;stroke-linejoin:miter;stroke-width:0.5;" x="932.715625" xlink:href="#m4d553fd0d3" y="533.112285032"/>
     <use style="fill:#008000;stroke:#000000;stroke-linejoin:miter;stroke-width:0.5;" x="1056.715625" xlink:href="#m4d553fd0d3" y="580.21980534"/>
    </g>
   </g>
   <g id="matplotlib.axis_1">
    <g id="xtick_1">
     <g id="line2d_2">
      <path clip-path="url(#pdc92de2c1f)" d="
M64.7156 583.2
L64.7156 7.2" style="fill:none;stroke:#000000;stroke-dasharray:3.000000,5.000000,1.000000,5.000000;stroke-dashoffset:0.0;"/>
     </g>
     <g id="line2d_3">
      <defs>
       <path d="
M0 0
L0 -4" id="m93b0483c22" style="stroke:#000000;stroke-width:0.5;"/>
      </defs>
      <g>
       <use style="stroke:#000000;stroke-width:0.5;" x="64.715625" xlink:href="#m93b0483c22" y="583.2"/>
      </g>
     </g>
     <g id="line2d_4">
      <defs>
       <path d="
M0 0
L0 4" id="m741efc42ff" style="stroke:#000000;stroke-width:0.5;"/>
      </defs>
      <g>
       <use style="stroke:#000000;stroke-width:0.5;" x="64.715625" xlink:href="#m741efc42ff" y="7.2"/>
      </g>
     </g>
     <g id="text_1">
      <!-- ACRU- - -->
      <defs>
       <path d="
M44.3906 34.1875
Q47.5625 33.1094 50.5625 29.5938
Q53.5625 26.0781 56.5938 19.9219
L66.6094 0
L56 0
L46.6875 18.7031
Q43.0625 26.0312 39.6719 28.4219
Q36.2812 30.8125 30.4219 30.8125
L19.6719 30.8125
L19.6719 0
L9.8125 0
L9.8125 72.9062
L32.0781 72.9062
Q44.5781 72.9062 50.7344 67.6719
Q56.8906 62.4531 56.8906 51.9062
Q56.8906 45.0156 53.6875 40.4688
Q50.4844 35.9375 44.3906 34.1875
M19.6719 64.7969
L19.6719 38.9219
L32.0781 38.9219
Q39.2031 38.9219 42.8438 42.2188
Q46.4844 45.5156 46.4844 51.9062
Q46.4844 58.2969 42.8438 61.5469
Q39.2031 64.7969 32.0781 64.7969
z
" id="DejaVuSans-52"/>
       <path d="
M4.89062 31.3906
L31.2031 31.3906
L31.2031 23.3906
L4.89062 23.3906
z
" id="DejaVuSans-2d"/>
       <path d="
M34.1875 63.1875
L20.7969 26.9062
L47.6094 26.9062
z

M28.6094 72.9062
L39.7969 72.9062
L67.5781 0
L57.3281 0
L50.6875 18.7031
L17.8281 18.7031
L11.1875 0
L0.78125 0
z
" id="DejaVuSans-41"/>
       <path d="
M8.6875 72.9062
L18.6094 72.9062
L18.6094 28.6094
Q18.6094 16.8906 22.8438 11.7344
Q27.0938 6.59375 36.625 6.59375
Q46.0938 6.59375 50.3438 11.7344
Q54.5938 16.8906 54.5938 28.6094
L54.5938 72.9062
L64.5 72.9062
L64.5 27.3906
Q64.5 13.1406 57.4375 5.85938
Q50.3906 -1.42188 36.625 -1.42188
Q22.7969 -1.42188 15.7344 5.85938
Q8.6875 13.1406 8.6875 27.3906
z
" id="DejaVuSans-55"/>
       <path d="
M64.4062 67.2812
L64.4062 56.8906
Q59.4219 61.5312 53.7812 63.8125
Q48.1406 66.1094 41.7969 66.1094
Q29.2969 66.1094 22.6562 58.4688
Q16.0156 50.8281 16.0156 36.375
Q16.0156 21.9688 22.6562 14.3281
Q29.2969 6.6875 41.7969 6.6875
Q48.1406 6.6875 53.7812 8.98438
Q59.4219 11.2812 64.4062 15.9219
L64.4062 5.60938
Q59.2344 2.09375 53.4375 0.328125
Q47.6562 -1.42188 41.2188 -1.42188
Q24.6562 -1.42188 15.125 8.70312
Q5.60938 18.8438 5.60938 36.375
Q5.60938 53.9531 15.125 64.0781
Q24.6562 74.2188 41.2188 74.2188
Q47.75 74.2188 53.5312 72.4844
Q59.3281 70.75 64.4062 67.2812" id="DejaVuSans-43"/>
      </defs>
      <g transform="translate(70.234375 656.33125)rotate(-90.0)scale(0.2 -0.2)">
       <use xlink:href="#DejaVuSans-41"/>
       <use x="66.658203125" xlink:href="#DejaVuSans-43"/>
       <use x="136.482421875" xlink:href="#DejaVuSans-52"/>
       <use x="205.96484375" xlink:href="#DejaVuSans-55"/>
       <use x="279.158203125" xlink:href="#DejaVuSans-2d"/>
       <use x="315.2421875" xlink:href="#DejaVuSans-2d"/>
      </g>
     </g>
    </g>
    <g id="xtick_2">
     <g id="line2d_5">
      <path clip-path="url(#pdc92de2c1f)" d="
M188.716 583.2
L188.716 7.2" style="fill:none;stroke:#000000;stroke-dasharray:3.000000,5.000000,1.000000,5.000000;stroke-dashoffset:0.0;"/>
     </g>
     <g id="line2d_6">
      <g>
       <use style="stroke:#000000;stroke-width:0.5;" x="188.715625" xlink:href="#m93b0483c22" y="583.2"/>
      </g>
     </g>
     <g id="line2d_7">
      <g>
       <use style="stroke:#000000;stroke-width:0.5;" x="188.715625" xlink:href="#m741efc42ff" y="7.2"/>
      </g>
     </g>
     <g id="text_2">
      <!-- LIST- - -->
      <defs>
       <path d="
M53.5156 70.5156
L53.5156 60.8906
Q47.9062 63.5781 42.9219 64.8906
Q37.9375 66.2188 33.2969 66.2188
Q25.25 66.2188 20.875 63.0938
Q16.5 59.9688 16.5 54.2031
Q16.5 49.3594 19.4062 46.8906
Q22.3125 44.4375 30.4219 42.9219
L36.375 41.7031
Q47.4062 39.5938 52.6562 34.2969
Q57.9062 29 57.9062 20.125
Q57.9062 9.51562 50.7969 4.04688
Q43.7031 -1.42188 29.9844 -1.42188
Q24.8125 -1.42188 18.9688 -0.25
Q13.1406 0.921875 6.89062 3.21875
L6.89062 13.375
Q12.8906 10.0156 18.6562 8.29688
Q24.4219 6.59375 29.9844 6.59375
Q38.4219 6.59375 43.0156 9.90625
Q47.6094 13.2344 47.6094 19.3906
Q47.6094 24.75 44.3125 27.7812
Q41.0156 30.8125 33.5 32.3281
L27.4844 33.5
Q16.4531 35.6875 11.5156 40.375
Q6.59375 45.0625 6.59375 53.4219
Q6.59375 63.0938 13.4062 68.6562
Q20.2188 74.2188 32.1719 74.2188
Q37.3125 74.2188 42.625 73.2812
Q47.9531 72.3594 53.5156 70.5156" id="DejaVuSans-53"/>
       <path d="
M-0.296875 72.9062
L61.375 72.9062
L61.375 64.5938
L35.5 64.5938
L35.5 0
L25.5938 0
L25.5938 64.5938
L-0.296875 64.5938
z
" id="DejaVuSans-54"/>
       <path d="
M9.8125 72.9062
L19.6719 72.9062
L19.6719 0
L9.8125 0
z
" id="DejaVuSans-49"/>
       <path d="
M9.8125 72.9062
L19.6719 72.9062
L19.6719 8.29688
L55.1719 8.29688
L55.1719 0
L9.8125 0
z
" id="DejaVuSans-4c"/>
      </defs>
      <g transform="translate(194.234375 638.825)rotate(-90.0)scale(0.2 -0.2)">
       <use xlink:href="#DejaVuSans-4c"/>
       <use x="55.712890625" xlink:href="#DejaVuSans-49"/>
       <use x="85.205078125" xlink:href="#DejaVuSans-53"/>
       <use x="148.681640625" xlink:href="#DejaVuSans-54"/>
       <use x="200.640625" xlink:href="#DejaVuSans-2d"/>
       <use x="236.724609375" xlink:href="#DejaVuSans-2d"/>
      </g>
     </g>
    </g>
    <g id="xtick_3">
     <g id="line2d_8">
      <path clip-path="url(#pdc92de2c1f)" d="
M312.716 583.2
L312.716 7.2" style="fill:none;stroke:#000000;stroke-dasharray:3.000000,5.000000,1.000000,5.000000;stroke-dashoffset:0.0;"/>
     </g>
     <g id="line2d_9">
      <g>
       <use style="stroke:#000000;stroke-width:0.5;" x="312.715625" xlink:href="#m93b0483c22" y="583.2"/>
      </g>
     </g>
     <g id="line2d_10">
      <g>
       <use style="stroke:#000000;stroke-width:0.5;" x="312.715625" xlink:href="#m741efc42ff" y="7.2"/>
      </g>
     </g>
     <g id="text_3">
      <!-- OTHER- - -->
      <defs>
       <path d="
M9.8125 72.9062
L55.9062 72.9062
L55.9062 64.5938
L19.6719 64.5938
L19.6719 43.0156
L54.3906 43.0156
L54.3906 34.7188
L19.6719 34.7188
L19.6719 8.29688
L56.7812 8.29688
L56.7812 0
L9.8125 0
z
" id="DejaVuSans-45"/>
       <path d="
M39.4062 66.2188
Q28.6562 66.2188 22.3281 58.2031
Q16.0156 50.2031 16.0156 36.375
Q16.0156 22.6094 22.3281 14.5938
Q28.6562 6.59375 39.4062 6.59375
Q50.1406 6.59375 56.4219 14.5938
Q62.7031 22.6094 62.7031 36.375
Q62.7031 50.2031 56.4219 58.2031
Q50.1406 66.2188 39.4062 66.2188
M39.4062 74.2188
Q54.7344 74.2188 63.9062 63.9375
Q73.0938 53.6562 73.0938 36.375
Q73.0938 19.1406 63.9062 8.85938
Q54.7344 -1.42188 39.4062 -1.42188
Q24.0312 -1.42188 14.8125 8.82812
Q5.60938 19.0938 5.60938 36.375
Q5.60938 53.6562 14.8125 63.9375
Q24.0312 74.2188 39.4062 74.2188" id="DejaVuSans-4f"/>
       <path d="
M9.8125 72.9062
L19.6719 72.9062
L19.6719 43.0156
L55.5156 43.0156
L55.5156 72.9062
L65.375 72.9062
L65.375 0
L55.5156 0
L55.5156 34.7188
L19.6719 34.7188
L19.6719 0
L9.8125 0
z
" id="DejaVuSans-48"/>
      </defs>
      <g transform="translate(318.234375 668.26875)rotate(-90.0)scale(0.2 -0.2)">
       <use xlink:href="#DejaVuSans-4f"/>
       <use x="78.7109375" xlink:href="#DejaVuSans-54"/>
       <use x="139.794921875" xlink:href="#DejaVuSans-48"/>
       <use x="214.990234375" xlink:href="#DejaVuSans-45"/>
       <use x="278.173828125" xlink:href="#DejaVuSans-52"/>
       <use x="343.65625" xlink:href="#DejaVuSans-2d"/>
       <use x="379.740234375" xlink:href="#DejaVuSans-2d"/>
      </g>
     </g>
    </g>
    <g id="xtick_4">
     <g id="line2d_11">
      <path clip-path="url(#pdc92de2c1f)" d="
M436.716 583.2
L436.716 7.2" style="fill:none;stroke:#000000;stroke-dasharray:3.000000,5.000000,1.000000,5.000000;stroke-dashoffset:0.0;"/>
     </g>
     <g id="line2d_12">
      <g>
       <use style="stroke:#000000;stroke-width:0.5;" x="436.715625" xlink:href="#m93b0483c22" y="583.2"/>
      </g>
     </g>
     <g id="line2d_13">
      <g>
       <use style="stroke:#000000;stroke-width:0.5;" x="436.715625" xlink:href="#m741efc42ff" y="7.2"/>
      </g>
     </g>
     <g id="text_4">
      <!-- PIEL- - -->
      <defs>
       <path d="
M19.6719 64.7969
L19.6719 37.4062
L32.0781 37.4062
Q38.9688 37.4062 42.7188 40.9688
Q46.4844 44.5312 46.4844 51.125
Q46.4844 57.6719 42.7188 61.2344
Q38.9688 64.7969 32.0781 64.7969
z

M9.8125 72.9062
L32.0781 72.9062
Q44.3438 72.9062 50.6094 67.3594
Q56.8906 61.8125 56.8906 51.125
Q56.8906 40.3281 50.6094 34.8125
Q44.3438 29.2969 32.0781 29.2969
L19.6719 29.2969
L19.6719 0
L9.8125 0
z
" id="DejaVuSans-50"/>
      </defs>
      <g transform="translate(442.234375 640.084375)rotate(-90.0)scale(0.2 -0.2)">
       <use xlink:href="#DejaVuSans-50"/>
       <use x="60.302734375" xlink:href="#DejaVuSans-49"/>
       <use x="89.794921875" xlink:href="#DejaVuSans-45"/>
       <use x="152.978515625" xlink:href="#DejaVuSans-4c"/>
       <use x="206.94140625" xlink:href="#DejaVuSans-2d"/>
       <use x="243.025390625" xlink:href="#DejaVuSans-2d"/>
      </g>
     </g>
    </g>
    <g id="xtick_5">
     <g id="line2d_14">
      <path clip-path="url(#pdc92de2c1f)" d="
M560.716 583.2
L560.716 7.2" style="fill:none;stroke:#000000;stroke-dasharray:3.000000,5.000000,1.000000,5.000000;stroke-dashoffset:0.0;"/>
     </g>
     <g id="line2d_15">
      <g>
       <use style="stroke:#000000;stroke-width:0.5;" x="560.715625" xlink:href="#m93b0483c22" y="583.2"/>
      </g>
     </g>
     <g id="line2d_16">
      <g>
       <use style="stroke:#000000;stroke-width:0.5;" x="560.715625" xlink:href="#m741efc42ff" y="7.2"/>
      </g>
     </g>
     <g id="text_5">
      <!-- PIPA- - -->
      <g transform="translate(566.234375 640.66875)rotate(-90.0)scale(0.2 -0.2)">
       <use xlink:href="#DejaVuSans-50"/>
       <use x="60.302734375" xlink:href="#DejaVuSans-49"/>
       <use x="89.794921875" xlink:href="#DejaVuSans-50"/>
       <use x="143.72265625" xlink:href="#DejaVuSans-41"/>
       <use x="209.880859375" xlink:href="#DejaVuSans-2d"/>
       <use x="245.96484375" xlink:href="#DejaVuSans-2d"/>
      </g>
     </g>
    </g>
    <g id="xtick_6">
     <g id="line2d_17">
      <path clip-path="url(#pdc92de2c1f)" d="
M684.716 583.2
L684.716 7.2" style="fill:none;stroke:#000000;stroke-dasharray:3.000000,5.000000,1.000000,5.000000;stroke-dashoffset:0.0;"/>
     </g>
     <g id="line2d_18">
      <g>
       <use style="stroke:#000000;stroke-width:0.5;" x="684.715625" xlink:href="#m93b0483c22" y="583.2"/>
      </g>
     </g>
     <g id="line2d_19">
      <g>
       <use style="stroke:#000000;stroke-width:0.5;" x="684.715625" xlink:href="#m741efc42ff" y="7.2"/>
      </g>
     </g>
     <g id="text_6">
      <!-- PITA- - -->
      <g transform="translate(690.234375 640.55)rotate(-90.0)scale(0.2 -0.2)">
       <use xlink:href="#DejaVuSans-50"/>
       <use x="60.302734375" xlink:href="#DejaVuSans-49"/>
       <use x="89.794921875" xlink:href="#DejaVuSans-54"/>
       <use x="143.12890625" xlink:href="#DejaVuSans-41"/>
       <use x="209.287109375" xlink:href="#DejaVuSans-2d"/>
       <use x="245.37109375" xlink:href="#DejaVuSans-2d"/>
      </g>
     </g>
    </g>
    <g id="xtick_7">
     <g id="line2d_20">
      <path clip-path="url(#pdc92de2c1f)" d="
M808.716 583.2
L808.716 7.2" style="fill:none;stroke:#000000;stroke-dasharray:3.000000,5.000000,1.000000,5.000000;stroke-dashoffset:0.0;"/>
     </g>
     <g id="line2d_21">
      <g>
       <use style="stroke:#000000;stroke-width:0.5;" x="808.715625" xlink:href="#m93b0483c22" y="583.2"/>
      </g>
     </g>
     <g id="line2d_22">
      <g>
       <use style="stroke:#000000;stroke-width:0.5;" x="808.715625" xlink:href="#m741efc42ff" y="7.2"/>
      </g>
     </g>
     <g id="text_7">
      <!-- QUGE- - -->
      <defs>
       <path d="
M39.4062 66.2188
Q28.6562 66.2188 22.3281 58.2031
Q16.0156 50.2031 16.0156 36.375
Q16.0156 22.6094 22.3281 14.5938
Q28.6562 6.59375 39.4062 6.59375
Q50.1406 6.59375 56.4219 14.5938
Q62.7031 22.6094 62.7031 36.375
Q62.7031 50.2031 56.4219 58.2031
Q50.1406 66.2188 39.4062 66.2188
M53.2188 1.3125
L66.2188 -12.8906
L54.2969 -12.8906
L43.5 -1.21875
Q41.8906 -1.3125 41.0312 -1.35938
Q40.1875 -1.42188 39.4062 -1.42188
Q24.0312 -1.42188 14.8125 8.85938
Q5.60938 19.1406 5.60938 36.375
Q5.60938 53.6562 14.8125 63.9375
Q24.0312 74.2188 39.4062 74.2188
Q54.7344 74.2188 63.9062 63.9375
Q73.0938 53.6562 73.0938 36.375
Q73.0938 23.6875 67.9844 14.6406
Q62.8906 5.60938 53.2188 1.3125" id="DejaVuSans-51"/>
       <path d="
M59.5156 10.4062
L59.5156 29.9844
L43.4062 29.9844
L43.4062 38.0938
L69.2812 38.0938
L69.2812 6.78125
Q63.5781 2.73438 56.6875 0.65625
Q49.8125 -1.42188 42 -1.42188
Q24.9062 -1.42188 15.25 8.5625
Q5.60938 18.5625 5.60938 36.375
Q5.60938 54.25 15.25 64.2344
Q24.9062 74.2188 42 74.2188
Q49.125 74.2188 55.5469 72.4531
Q61.9688 70.7031 67.3906 67.2812
L67.3906 56.7812
Q61.9219 61.4219 55.7656 63.7656
Q49.6094 66.1094 42.8281 66.1094
Q29.4375 66.1094 22.7188 58.6406
Q16.0156 51.1719 16.0156 36.375
Q16.0156 21.625 22.7188 14.1562
Q29.4375 6.6875 42.8281 6.6875
Q48.0469 6.6875 52.1406 7.59375
Q56.25 8.5 59.5156 10.4062" id="DejaVuSans-47"/>
      </defs>
      <g transform="translate(814.234375 658.05)rotate(-90.0)scale(0.2 -0.2)">
       <use xlink:href="#DejaVuSans-51"/>
       <use x="78.7109375" xlink:href="#DejaVuSans-55"/>
       <use x="151.904296875" xlink:href="#DejaVuSans-47"/>
       <use x="229.39453125" xlink:href="#DejaVuSans-45"/>
       <use x="292.578125" xlink:href="#DejaVuSans-2d"/>
       <use x="328.662109375" xlink:href="#DejaVuSans-2d"/>
      </g>
     </g>
    </g>
    <g id="xtick_8">
     <g id="line2d_23">
      <path clip-path="url(#pdc92de2c1f)" d="
M932.716 583.2
L932.716 7.2" style="fill:none;stroke:#000000;stroke-dasharray:3.000000,5.000000,1.000000,5.000000;stroke-dashoffset:0.0;"/>
     </g>
     <g id="line2d_24">
      <g>
       <use style="stroke:#000000;stroke-width:0.5;" x="932.715625" xlink:href="#m93b0483c22" y="583.2"/>
      </g>
     </g>
     <g id="line2d_25">
      <g>
       <use style="stroke:#000000;stroke-width:0.5;" x="932.715625" xlink:href="#m741efc42ff" y="7.2"/>
      </g>
     </g>
     <g id="text_8">
      <!-- QULA- - -->
      <g transform="translate(938.234375 654.740625)rotate(-90.0)scale(0.2 -0.2)">
       <use xlink:href="#DejaVuSans-51"/>
       <use x="78.7109375" xlink:href="#DejaVuSans-55"/>
       <use x="151.904296875" xlink:href="#DejaVuSans-4c"/>
       <use x="209.8671875" xlink:href="#DejaVuSans-41"/>
       <use x="276.025390625" xlink:href="#DejaVuSans-2d"/>
       <use x="312.109375" xlink:href="#DejaVuSans-2d"/>
      </g>
     </g>
    </g>
    <g id="xtick_9">
     <g id="line2d_26">
      <path clip-path="url(#pdc92de2c1f)" d="
M1056.72 583.2
L1056.72 7.2" style="fill:none;stroke:#000000;stroke-dasharray:3.000000,5.000000,1.000000,5.000000;stroke-dashoffset:0.0;"/>
     </g>
     <g id="line2d_27">
      <g>
       <use style="stroke:#000000;stroke-width:0.5;" x="1056.715625" xlink:href="#m93b0483c22" y="583.2"/>
      </g>
     </g>
     <g id="line2d_28">
      <g>
       <use style="stroke:#000000;stroke-width:0.5;" x="1056.715625" xlink:href="#m741efc42ff" y="7.2"/>
      </g>
     </g>
     <g id="text_9">
      <!-- QUNI- - -->
      <defs>
       <path d="
M9.8125 72.9062
L23.0938 72.9062
L55.4219 11.9219
L55.4219 72.9062
L64.9844 72.9062
L64.9844 0
L51.7031 0
L19.3906 60.9844
L19.3906 0
L9.8125 0
z
" id="DejaVuSans-4e"/>
      </defs>
      <g transform="translate(1062.234375 650.778125)rotate(-90.0)scale(0.2 -0.2)">
       <use xlink:href="#DejaVuSans-51"/>
       <use x="78.7109375" xlink:href="#DejaVuSans-55"/>
       <use x="151.904296875" xlink:href="#DejaVuSans-4e"/>
       <use x="226.708984375" xlink:href="#DejaVuSans-49"/>
       <use x="256.201171875" xlink:href="#DejaVuSans-2d"/>
       <use x="292.28515625" xlink:href="#DejaVuSans-2d"/>
      </g>
     </g>
    </g>
    <g id="text_10">
     <!-- Species ID -->
     <defs>
      <path d="
M48.7812 52.5938
L48.7812 44.1875
Q44.9688 46.2969 41.1406 47.3438
Q37.3125 48.3906 33.4062 48.3906
Q24.6562 48.3906 19.8125 42.8438
Q14.9844 37.3125 14.9844 27.2969
Q14.9844 17.2812 19.8125 11.7344
Q24.6562 6.20312 33.4062 6.20312
Q37.3125 6.20312 41.1406 7.25
Q44.9688 8.29688 48.7812 10.4062
L48.7812 2.09375
Q45.0156 0.34375 40.9844 -0.53125
Q36.9688 -1.42188 32.4219 -1.42188
Q20.0625 -1.42188 12.7812 6.34375
Q5.51562 14.1094 5.51562 27.2969
Q5.51562 40.6719 12.8594 48.3281
Q20.2188 56 33.0156 56
Q37.1562 56 41.1094 55.1406
Q45.0625 54.2969 48.7812 52.5938" id="DejaVuSans-63"/>
      <path d="
M19.6719 64.7969
L19.6719 8.10938
L31.5938 8.10938
Q46.6875 8.10938 53.6875 14.9375
Q60.6875 21.7812 60.6875 36.5312
Q60.6875 51.1719 53.6875 57.9844
Q46.6875 64.7969 31.5938 64.7969
z

M9.8125 72.9062
L30.0781 72.9062
Q51.2656 72.9062 61.1719 64.0938
Q71.0938 55.2812 71.0938 36.5312
Q71.0938 17.6719 61.125 8.82812
Q51.1719 0 30.0781 0
L9.8125 0
z
" id="DejaVuSans-44"/>
      <path id="DejaVuSans-20"/>
      <path d="
M9.42188 54.6875
L18.4062 54.6875
L18.4062 0
L9.42188 0
z

M9.42188 75.9844
L18.4062 75.9844
L18.4062 64.5938
L9.42188 64.5938
z
" id="DejaVuSans-69"/>
      <path d="
M56.2031 29.5938
L56.2031 25.2031
L14.8906 25.2031
Q15.4844 15.9219 20.4844 11.0625
Q25.4844 6.20312 34.4219 6.20312
Q39.5938 6.20312 44.4531 7.46875
Q49.3125 8.73438 54.1094 11.2812
L54.1094 2.78125
Q49.2656 0.734375 44.1875 -0.34375
Q39.1094 -1.42188 33.8906 -1.42188
Q20.7969 -1.42188 13.1562 6.1875
Q5.51562 13.8125 5.51562 26.8125
Q5.51562 40.2344 12.7656 48.1094
Q20.0156 56 32.3281 56
Q43.3594 56 49.7812 48.8906
Q56.2031 41.7969 56.2031 29.5938
M47.2188 32.2344
Q47.125 39.5938 43.0938 43.9844
Q39.0625 48.3906 32.4219 48.3906
Q24.9062 48.3906 20.3906 44.1406
Q15.875 39.8906 15.1875 32.1719
z
" id="DejaVuSans-65"/>
      <path d="
M18.1094 8.20312
L18.1094 -20.7969
L9.07812 -20.7969
L9.07812 54.6875
L18.1094 54.6875
L18.1094 46.3906
Q20.9531 51.2656 25.2656 53.625
Q29.5938 56 35.5938 56
Q45.5625 56 51.7812 48.0938
Q58.0156 40.1875 58.0156 27.2969
Q58.0156 14.4062 51.7812 6.48438
Q45.5625 -1.42188 35.5938 -1.42188
Q29.5938 -1.42188 25.2656 0.953125
Q20.9531 3.32812 18.1094 8.20312
M48.6875 27.2969
Q48.6875 37.2031 44.6094 42.8438
Q40.5312 48.4844 33.4062 48.4844
Q26.2656 48.4844 22.1875 42.8438
Q18.1094 37.2031 18.1094 27.2969
Q18.1094 17.3906 22.1875 11.75
Q26.2656 6.10938 33.4062 6.10938
Q40.5312 6.10938 44.6094 11.75
Q48.6875 17.3906 48.6875 27.2969" id="DejaVuSans-70"/>
      <path d="
M44.2812 53.0781
L44.2812 44.5781
Q40.4844 46.5312 36.375 47.5
Q32.2812 48.4844 27.875 48.4844
Q21.1875 48.4844 17.8438 46.4375
Q14.5 44.3906 14.5 40.2812
Q14.5 37.1562 16.8906 35.375
Q19.2812 33.5938 26.5156 31.9844
L29.5938 31.2969
Q39.1562 29.25 43.1875 25.5156
Q47.2188 21.7812 47.2188 15.0938
Q47.2188 7.46875 41.1875 3.01562
Q35.1562 -1.42188 24.6094 -1.42188
Q20.2188 -1.42188 15.4531 -0.5625
Q10.6875 0.296875 5.42188 2
L5.42188 11.2812
Q10.4062 8.6875 15.2344 7.39062
Q20.0625 6.10938 24.8125 6.10938
Q31.1562 6.10938 34.5625 8.28125
Q37.9844 10.4531 37.9844 14.4062
Q37.9844 18.0625 35.5156 20.0156
Q33.0625 21.9688 24.7031 23.7812
L21.5781 24.5156
Q13.2344 26.2656 9.51562 29.9062
Q5.8125 33.5469 5.8125 39.8906
Q5.8125 47.6094 11.2812 51.7969
Q16.75 56 26.8125 56
Q31.7812 56 36.1719 55.2656
Q40.5781 54.5469 44.2812 53.0781" id="DejaVuSans-73"/>
     </defs>
     <g transform="translate(570.9890625 688.465625)scale(0.2 -0.2)">
      <use xlink:href="#DejaVuSans-53"/>
      <use x="63.4765625" xlink:href="#DejaVuSans-70"/>
      <use x="126.953125" xlink:href="#DejaVuSans-65"/>
      <use x="188.4765625" xlink:href="#DejaVuSans-63"/>
      <use x="243.45703125" xlink:href="#DejaVuSans-69"/>
      <use x="271.240234375" xlink:href="#DejaVuSans-65"/>
      <use x="332.763671875" xlink:href="#DejaVuSans-73"/>
      <use x="384.86328125" xlink:href="#DejaVuSans-20"/>
      <use x="416.650390625" xlink:href="#DejaVuSans-49"/>
      <use x="446.142578125" xlink:href="#DejaVuSans-44"/>
     </g>
    </g>
   </g>
   <g id="matplotlib.axis_2">
    <g id="ytick_1">
     <g id="line2d_29">
      <path clip-path="url(#pdc92de2c1f)" d="
M64.7156 583.2
L1180.72 583.2" style="fill:none;stroke:#000000;stroke-dasharray:3.000000,5.000000,1.000000,5.000000;stroke-dashoffset:0.0;"/>
     </g>
     <g id="line2d_30">
      <defs>
       <path d="
M0 0
L4 0" id="m728421d6d4" style="stroke:#000000;stroke-width:0.5;"/>
      </defs>
      <g>
       <use style="stroke:#000000;stroke-width:0.5;" x="64.715625" xlink:href="#m728421d6d4" y="583.2"/>
      </g>
     </g>
     <g id="line2d_31">
      <defs>
       <path d="
M0 0
L-4 0" id="mcb0005524f" style="stroke:#000000;stroke-width:0.5;"/>
      </defs>
      <g>
       <use style="stroke:#000000;stroke-width:0.5;" x="1180.715625" xlink:href="#mcb0005524f" y="583.2"/>
      </g>
     </g>
     <g id="text_11">
      <!-- 0.0 -->
      <defs>
       <path d="
M31.7812 66.4062
Q24.1719 66.4062 20.3281 58.9062
Q16.5 51.4219 16.5 36.375
Q16.5 21.3906 20.3281 13.8906
Q24.1719 6.39062 31.7812 6.39062
Q39.4531 6.39062 43.2812 13.8906
Q47.125 21.3906 47.125 36.375
Q47.125 51.4219 43.2812 58.9062
Q39.4531 66.4062 31.7812 66.4062
M31.7812 74.2188
Q44.0469 74.2188 50.5156 64.5156
Q56.9844 54.8281 56.9844 36.375
Q56.9844 17.9688 50.5156 8.26562
Q44.0469 -1.42188 31.7812 -1.42188
Q19.5312 -1.42188 13.0625 8.26562
Q6.59375 17.9688 6.59375 36.375
Q6.59375 54.8281 13.0625 64.5156
Q19.5312 74.2188 31.7812 74.2188" id="DejaVuSans-30"/>
       <path d="
M10.6875 12.4062
L21 12.4062
L21 0
L10.6875 0
z
" id="DejaVuSans-2e"/>
      </defs>
      <g transform="translate(31.55625 588.71875)scale(0.2 -0.2)">
       <use xlink:href="#DejaVuSans-30"/>
       <use x="63.623046875" xlink:href="#DejaVuSans-2e"/>
       <use x="95.41015625" xlink:href="#DejaVuSans-30"/>
      </g>
     </g>
    </g>
    <g id="ytick_2">
     <g id="line2d_32">
      <path clip-path="url(#pdc92de2c1f)" d="
M64.7156 443.876
L1180.72 443.876" style="fill:none;stroke:#000000;stroke-dasharray:3.000000,5.000000,1.000000,5.000000;stroke-dashoffset:0.0;"/>
     </g>
     <g id="line2d_33">
      <g>
       <use style="stroke:#000000;stroke-width:0.5;" x="64.715625" xlink:href="#m728421d6d4" y="443.875899087"/>
      </g>
     </g>
     <g id="line2d_34">
      <g>
       <use style="stroke:#000000;stroke-width:0.5;" x="1180.715625" xlink:href="#mcb0005524f" y="443.875899087"/>
      </g>
     </g>
     <g id="text_12">
      <!-- 0.5 -->
      <defs>
       <path d="
M10.7969 72.9062
L49.5156 72.9062
L49.5156 64.5938
L19.8281 64.5938
L19.8281 46.7344
Q21.9688 47.4688 24.1094 47.8281
Q26.2656 48.1875 28.4219 48.1875
Q40.625 48.1875 47.75 41.5
Q54.8906 34.8125 54.8906 23.3906
Q54.8906 11.625 47.5625 5.09375
Q40.2344 -1.42188 26.9062 -1.42188
Q22.3125 -1.42188 17.5469 -0.640625
Q12.7969 0.140625 7.71875 1.70312
L7.71875 11.625
Q12.1094 9.23438 16.7969 8.0625
Q21.4844 6.89062 26.7031 6.89062
Q35.1562 6.89062 40.0781 11.3281
Q45.0156 15.7656 45.0156 23.3906
Q45.0156 31 40.0781 35.4375
Q35.1562 39.8906 26.7031 39.8906
Q22.75 39.8906 18.8125 39.0156
Q14.8906 38.1406 10.7969 36.2812
z
" id="DejaVuSans-35"/>
      </defs>
      <g transform="translate(31.975 449.394649087)scale(0.2 -0.2)">
       <use xlink:href="#DejaVuSans-30"/>
       <use x="63.623046875" xlink:href="#DejaVuSans-2e"/>
       <use x="95.41015625" xlink:href="#DejaVuSans-35"/>
      </g>
     </g>
    </g>
    <g id="ytick_3">
     <g id="line2d_35">
      <path clip-path="url(#pdc92de2c1f)" d="
M64.7156 304.552
L1180.72 304.552" style="fill:none;stroke:#000000;stroke-dasharray:3.000000,5.000000,1.000000,5.000000;stroke-dashoffset:0.0;"/>
     </g>
     <g id="line2d_36">
      <g>
       <use style="stroke:#000000;stroke-width:0.5;" x="64.715625" xlink:href="#m728421d6d4" y="304.551798173"/>
      </g>
     </g>
     <g id="line2d_37">
      <g>
       <use style="stroke:#000000;stroke-width:0.5;" x="1180.715625" xlink:href="#mcb0005524f" y="304.551798173"/>
      </g>
     </g>
     <g id="text_13">
      <!-- 1.0 -->
      <defs>
       <path d="
M12.4062 8.29688
L28.5156 8.29688
L28.5156 63.9219
L10.9844 60.4062
L10.9844 69.3906
L28.4219 72.9062
L38.2812 72.9062
L38.2812 8.29688
L54.3906 8.29688
L54.3906 0
L12.4062 0
z
" id="DejaVuSans-31"/>
      </defs>
      <g transform="translate(32.434375 310.070548173)scale(0.2 -0.2)">
       <use xlink:href="#DejaVuSans-31"/>
       <use x="63.623046875" xlink:href="#DejaVuSans-2e"/>
       <use x="95.41015625" xlink:href="#DejaVuSans-30"/>
      </g>
     </g>
    </g>
    <g id="ytick_4">
     <g id="line2d_38">
      <path clip-path="url(#pdc92de2c1f)" d="
M64.7156 165.228
L1180.72 165.228" style="fill:none;stroke:#000000;stroke-dasharray:3.000000,5.000000,1.000000,5.000000;stroke-dashoffset:0.0;"/>
     </g>
     <g id="line2d_39">
      <g>
       <use style="stroke:#000000;stroke-width:0.5;" x="64.715625" xlink:href="#m728421d6d4" y="165.22769726"/>
      </g>
     </g>
     <g id="line2d_40">
      <g>
       <use style="stroke:#000000;stroke-width:0.5;" x="1180.715625" xlink:href="#mcb0005524f" y="165.22769726"/>
      </g>
     </g>
     <g id="text_14">
      <!-- 1.5 -->
      <g transform="translate(32.853125 170.74644726)scale(0.2 -0.2)">
       <use xlink:href="#DejaVuSans-31"/>
       <use x="63.623046875" xlink:href="#DejaVuSans-2e"/>
       <use x="95.41015625" xlink:href="#DejaVuSans-35"/>
      </g>
     </g>
    </g>
    <g id="ytick_5">
     <g id="line2d_41">
      <path clip-path="url(#pdc92de2c1f)" d="
M64.7156 25.9036
L1180.72 25.9036" style="fill:none;stroke:#000000;stroke-dasharray:3.000000,5.000000,1.000000,5.000000;stroke-dashoffset:0.0;"/>
     </g>
     <g id="line2d_42">
      <g>
       <use style="stroke:#000000;stroke-width:0.5;" x="64.715625" xlink:href="#m728421d6d4" y="25.903596346"/>
      </g>
     </g>
     <g id="line2d_43">
      <g>
       <use style="stroke:#000000;stroke-width:0.5;" x="1180.715625" xlink:href="#mcb0005524f" y="25.903596346"/>
      </g>
     </g>
     <g id="text_15">
      <!-- 2.0 -->
      <defs>
       <path d="
M19.1875 8.29688
L53.6094 8.29688
L53.6094 0
L7.32812 0
L7.32812 8.29688
Q12.9375 14.1094 22.625 23.8906
Q32.3281 33.6875 34.8125 36.5312
Q39.5469 41.8438 41.4219 45.5312
Q43.3125 49.2188 43.3125 52.7812
Q43.3125 58.5938 39.2344 62.25
Q35.1562 65.9219 28.6094 65.9219
Q23.9688 65.9219 18.8125 64.3125
Q13.6719 62.7031 7.8125 59.4219
L7.8125 69.3906
Q13.7656 71.7812 18.9375 73
Q24.125 74.2188 28.4219 74.2188
Q39.75 74.2188 46.4844 68.5469
Q53.2188 62.8906 53.2188 53.4219
Q53.2188 48.9219 51.5312 44.8906
Q49.8594 40.875 45.4062 35.4062
Q44.1875 33.9844 37.6406 27.2188
Q31.1094 20.4531 19.1875 8.29688" id="DejaVuSans-32"/>
      </defs>
      <g transform="translate(31.703125 31.422346346)scale(0.2 -0.2)">
       <use xlink:href="#DejaVuSans-32"/>
       <use x="63.623046875" xlink:href="#DejaVuSans-2e"/>
       <use x="95.41015625" xlink:href="#DejaVuSans-30"/>
      </g>
     </g>
    </g>
    <g id="text_16">
     <!-- Precision, Recall and F1 Scores. -->
     <defs>
      <path d="
M11.7188 12.4062
L22.0156 12.4062
L22.0156 4
L14.0156 -11.625
L7.71875 -11.625
L11.7188 4
z
" id="DejaVuSans-2c"/>
      <path d="
M30.6094 48.3906
Q23.3906 48.3906 19.1875 42.75
Q14.9844 37.1094 14.9844 27.2969
Q14.9844 17.4844 19.1562 11.8438
Q23.3438 6.20312 30.6094 6.20312
Q37.7969 6.20312 41.9844 11.8594
Q46.1875 17.5312 46.1875 27.2969
Q46.1875 37.0156 41.9844 42.7031
Q37.7969 48.3906 30.6094 48.3906
M30.6094 56
Q42.3281 56 49.0156 48.375
Q55.7188 40.7656 55.7188 27.2969
Q55.7188 13.875 49.0156 6.21875
Q42.3281 -1.42188 30.6094 -1.42188
Q18.8438 -1.42188 12.1719 6.21875
Q5.51562 13.875 5.51562 27.2969
Q5.51562 40.7656 12.1719 48.375
Q18.8438 56 30.6094 56" id="DejaVuSans-6f"/>
      <path d="
M54.8906 33.0156
L54.8906 0
L45.9062 0
L45.9062 32.7188
Q45.9062 40.4844 42.875 44.3281
Q39.8438 48.1875 33.7969 48.1875
Q26.5156 48.1875 22.3125 43.5469
Q18.1094 38.9219 18.1094 30.9062
L18.1094 0
L9.07812 0
L9.07812 54.6875
L18.1094 54.6875
L18.1094 46.1875
Q21.3438 51.125 25.7031 53.5625
Q30.0781 56 35.7969 56
Q45.2188 56 50.0469 50.1719
Q54.8906 44.3438 54.8906 33.0156" id="DejaVuSans-6e"/>
      <path d="
M9.42188 75.9844
L18.4062 75.9844
L18.4062 0
L9.42188 0
z
" id="DejaVuSans-6c"/>
      <path d="
M9.8125 72.9062
L51.7031 72.9062
L51.7031 64.5938
L19.6719 64.5938
L19.6719 43.1094
L48.5781 43.1094
L48.5781 34.8125
L19.6719 34.8125
L19.6719 0
L9.8125 0
z
" id="DejaVuSans-46"/>
      <path d="
M45.4062 46.3906
L45.4062 75.9844
L54.3906 75.9844
L54.3906 0
L45.4062 0
L45.4062 8.20312
Q42.5781 3.32812 38.25 0.953125
Q33.9375 -1.42188 27.875 -1.42188
Q17.9688 -1.42188 11.7344 6.48438
Q5.51562 14.4062 5.51562 27.2969
Q5.51562 40.1875 11.7344 48.0938
Q17.9688 56 27.875 56
Q33.9375 56 38.25 53.625
Q42.5781 51.2656 45.4062 46.3906
M14.7969 27.2969
Q14.7969 17.3906 18.875 11.75
Q22.9531 6.10938 30.0781 6.10938
Q37.2031 6.10938 41.2969 11.75
Q45.4062 17.3906 45.4062 27.2969
Q45.4062 37.2031 41.2969 42.8438
Q37.2031 48.4844 30.0781 48.4844
Q22.9531 48.4844 18.875 42.8438
Q14.7969 37.2031 14.7969 27.2969" id="DejaVuSans-64"/>
      <path d="
M41.1094 46.2969
Q39.5938 47.1719 37.8125 47.5781
Q36.0312 48 33.8906 48
Q26.2656 48 22.1875 43.0469
Q18.1094 38.0938 18.1094 28.8125
L18.1094 0
L9.07812 0
L9.07812 54.6875
L18.1094 54.6875
L18.1094 46.1875
Q20.9531 51.1719 25.4844 53.5781
Q30.0312 56 36.5312 56
Q37.4531 56 38.5781 55.875
Q39.7031 55.7656 41.0625 55.5156
z
" id="DejaVuSans-72"/>
      <path d="
M34.2812 27.4844
Q23.3906 27.4844 19.1875 25
Q14.9844 22.5156 14.9844 16.5
Q14.9844 11.7188 18.1406 8.90625
Q21.2969 6.10938 26.7031 6.10938
Q34.1875 6.10938 38.7031 11.4062
Q43.2188 16.7031 43.2188 25.4844
L43.2188 27.4844
z

M52.2031 31.2031
L52.2031 0
L43.2188 0
L43.2188 8.29688
Q40.1406 3.32812 35.5469 0.953125
Q30.9531 -1.42188 24.3125 -1.42188
Q15.9219 -1.42188 10.9531 3.29688
Q6 8.01562 6 15.9219
Q6 25.1406 12.1719 29.8281
Q18.3594 34.5156 30.6094 34.5156
L43.2188 34.5156
L43.2188 35.4062
Q43.2188 41.6094 39.1406 45
Q35.0625 48.3906 27.6875 48.3906
Q23 48.3906 18.5469 47.2656
Q14.1094 46.1406 10.0156 43.8906
L10.0156 52.2031
Q14.9375 54.1094 19.5781 55.0469
Q24.2188 56 28.6094 56
Q40.4844 56 46.3438 49.8438
Q52.2031 43.7031 52.2031 31.2031" id="DejaVuSans-61"/>
     </defs>
     <g transform="translate(22.396875 451.78125)rotate(-90.0)scale(0.2 -0.2)">
      <use xlink:href="#DejaVuSans-50"/>
      <use x="58.552734375" xlink:href="#DejaVuSans-72"/>
      <use x="97.416015625" xlink:href="#DejaVuSans-65"/>
      <use x="158.939453125" xlink:href="#DejaVuSans-63"/>
      <use x="213.919921875" xlink:href="#DejaVuSans-69"/>
      <use x="241.703125" xlink:href="#DejaVuSans-73"/>
      <use x="293.802734375" xlink:href="#DejaVuSans-69"/>
      <use x="321.5859375" xlink:href="#DejaVuSans-6f"/>
      <use x="382.767578125" xlink:href="#DejaVuSans-6e"/>
      <use x="446.146484375" xlink:href="#DejaVuSans-2c"/>
      <use x="477.93359375" xlink:href="#DejaVuSans-20"/>
      <use x="509.720703125" xlink:href="#DejaVuSans-52"/>
      <use x="574.703125" xlink:href="#DejaVuSans-65"/>
      <use x="636.2265625" xlink:href="#DejaVuSans-63"/>
      <use x="691.20703125" xlink:href="#DejaVuSans-61"/>
      <use x="752.486328125" xlink:href="#DejaVuSans-6c"/>
      <use x="780.26953125" xlink:href="#DejaVuSans-6c"/>
      <use x="808.052734375" xlink:href="#DejaVuSans-20"/>
      <use x="839.83984375" xlink:href="#DejaVuSans-61"/>
      <use x="901.119140625" xlink:href="#DejaVuSans-6e"/>
      <use x="964.498046875" xlink:href="#DejaVuSans-64"/>
      <use x="1027.97460938" xlink:href="#DejaVuSans-20"/>
      <use x="1059.76171875" xlink:href="#DejaVuSans-46"/>
      <use x="1117.28125" xlink:href="#DejaVuSans-31"/>
      <use x="1180.90429688" xlink:href="#DejaVuSans-20"/>
      <use x="1212.69140625" xlink:href="#DejaVuSans-53"/>
      <use x="1276.16796875" xlink:href="#DejaVuSans-63"/>
      <use x="1331.1484375" xlink:href="#DejaVuSans-6f"/>
      <use x="1392.33007812" xlink:href="#DejaVuSans-72"/>
      <use x="1431.19335938" xlink:href="#DejaVuSans-65"/>
      <use x="1492.71679688" xlink:href="#DejaVuSans-73"/>
      <use x="1544.81640625" xlink:href="#DejaVuSans-2e"/>
     </g>
    </g>
   </g>
   <g id="patch_30">
    <path d="
M64.7156 7.2
L1180.72 7.2" style="fill:none;stroke:#000000;"/>
   </g>
   <g id="patch_31">
    <path d="
M1180.72 583.2
L1180.72 7.2" style="fill:none;stroke:#000000;"/>
   </g>
   <g id="patch_32">
    <path d="
M64.7156 583.2
L1180.72 583.2" style="fill:none;stroke:#000000;"/>
   </g>
   <g id="patch_33">
    <path d="
M64.7156 583.2
L64.7156 7.2" style="fill:none;stroke:#000000;"/>
   </g>
   <g id="legend_1">
    <g id="patch_34">
     <path d="
M1009.15 115.522
L1172.32 115.522
L1172.32 15.6
L1009.15 15.6
L1009.15 115.522
z
" style="fill:#ffffff;stroke:#000000;"/>
    </g>
    <g id="patch_35">
     <path d="
M1015.87 40.5562
L1049.47 40.5562
L1049.47 28.7962
L1015.87 28.7962
z
" style="fill:#008000;"/>
    </g>
    <g id="text_17">
     <!-- F1-Score -->
     <g transform="translate(1062.913125 40.55625)scale(0.24 -0.24)">
      <use xlink:href="#DejaVuSans-46"/>
      <use x="57.51953125" xlink:href="#DejaVuSans-31"/>
      <use x="121.142578125" xlink:href="#DejaVuSans-2d"/>
      <use x="157.2265625" xlink:href="#DejaVuSans-53"/>
      <use x="220.703125" xlink:href="#DejaVuSans-63"/>
      <use x="275.68359375" xlink:href="#DejaVuSans-6f"/>
      <use x="336.865234375" xlink:href="#DejaVuSans-72"/>
      <use x="375.728515625" xlink:href="#DejaVuSans-65"/>
     </g>
    </g>
    <g id="patch_36">
     <path d="
M1015.87 72.1838
L1049.47 72.1838
L1049.47 60.4238
L1015.87 60.4238
z
" style="fill:#0000ff;"/>
    </g>
    <g id="text_18">
     <!-- Precision -->
     <g transform="translate(1062.913125 72.18375)scale(0.24 -0.24)">
      <use xlink:href="#DejaVuSans-50"/>
      <use x="58.552734375" xlink:href="#DejaVuSans-72"/>
      <use x="97.416015625" xlink:href="#DejaVuSans-65"/>
      <use x="158.939453125" xlink:href="#DejaVuSans-63"/>
      <use x="213.919921875" xlink:href="#DejaVuSans-69"/>
      <use x="241.703125" xlink:href="#DejaVuSans-73"/>
      <use x="293.802734375" xlink:href="#DejaVuSans-69"/>
      <use x="321.5859375" xlink:href="#DejaVuSans-6f"/>
      <use x="382.767578125" xlink:href="#DejaVuSans-6e"/>
     </g>
    </g>
    <g id="patch_37">
     <path d="
M1015.87 103.811
L1049.47 103.811
L1049.47 92.0512
L1015.87 92.0512
z
" style="fill:#ff0000;"/>
    </g>
    <g id="text_19">
     <!-- Recall -->
     <g transform="translate(1062.913125 103.81125)scale(0.24 -0.24)">
      <use xlink:href="#DejaVuSans-52"/>
      <use x="64.982421875" xlink:href="#DejaVuSans-65"/>
      <use x="126.505859375" xlink:href="#DejaVuSans-63"/>
      <use x="181.486328125" xlink:href="#DejaVuSans-61"/>
      <use x="242.765625" xlink:href="#DejaVuSans-6c"/>
      <use x="270.548828125" xlink:href="#DejaVuSans-6c"/>
     </g>
    </g>
   </g>
  </g>
 </g>
 <defs>
  <clipPath id="pdc92de2c1f">
   <rect height="576.0" width="1116.0" x="64.715625" y="7.2"/>
  </clipPath>
 </defs>
</svg>
